<?xml version="1.0" encoding="UTF-8" standalone="no"?>
<!-- Created with Inkscape (http://www.inkscape.org/) -->

<svg
   xmlns:dc="http://purl.org/dc/elements/1.1/"
   xmlns:cc="http://creativecommons.org/ns#"
   xmlns:rdf="http://www.w3.org/1999/02/22-rdf-syntax-ns#"
   xmlns:svg="http://www.w3.org/2000/svg"
   xmlns="http://www.w3.org/2000/svg"
   xmlns:sodipodi="http://sodipodi.sourceforge.net/DTD/sodipodi-0.dtd"
   xmlns:inkscape="http://www.inkscape.org/namespaces/inkscape"
   width="297mm"
   height="210mm"
   viewBox="0 0 297 210"
   version="1.1"
   id="svg8"
   inkscape:version="0.92.4 (5da689c313, 2019-01-14)"
   sodipodi:docname="logoini.svg">
  <defs
     id="defs2" />
  <sodipodi:namedview
     id="base"
     pagecolor="#ffffff"
     bordercolor="#666666"
     borderopacity="1.0"
     inkscape:pageopacity="0.0"
     inkscape:pageshadow="2"
     inkscape:zoom="0.7"
     inkscape:cx="399.18134"
     inkscape:cy="421.18821"
     inkscape:document-units="mm"
     inkscape:current-layer="layer1-2"
     showgrid="false"
     inkscape:window-width="1920"
     inkscape:window-height="1017"
     inkscape:window-x="-8"
     inkscape:window-y="-8"
     inkscape:window-maximized="1" />
  <metadata
     id="metadata5">
    <rdf:RDF>
      <cc:Work
         rdf:about="">
        <dc:format>image/svg+xml</dc:format>
        <dc:type
           rdf:resource="http://purl.org/dc/dcmitype/StillImage" />
        <dc:title></dc:title>
      </cc:Work>
    </rdf:RDF>
  </metadata>
  <g
     inkscape:label="Capa 1"
     inkscape:groupmode="layer"
     id="layer1"
     transform="translate(0,-87)">
    <g
       id="layer1-2"
       inkscape:label="Capa 1"
       transform="translate(-0.66598376,-17.970458)">
      <g
         id="g839"
         transform="matrix(1.9953958,0,0,1.7870876,-61.935628,-52.497132)"
         style="stroke-width:0.52955681">
        <path
           style="font-style:normal;font-variant:normal;font-weight:normal;font-stretch:normal;font-size:66.94704437px;line-height:1.25;font-family:'Bauhaus 93';-inkscape-font-specification:'Bauhaus 93, Normal';font-variant-ligatures:normal;font-variant-caps:normal;font-variant-numeric:normal;font-feature-settings:normal;text-align:start;letter-spacing:0px;word-spacing:0px;writing-mode:lr-tb;text-anchor:start;fill:#0055d4;fill-opacity:1;stroke:none;stroke-width:0.14011188"
           d="m 80.476562,125.33984 c -6.099471,-0.0778 -12.242663,3.64481 -16.457031,6.80078 -0.718506,-4.63769 -5.65353,-6.46405 -9.794922,-5.46289 -6.045293,-0.43742 -14.715155,-1.13812 -18.007812,4.8711 -0.741039,10.28517 1.087779,21.10218 -0.599609,31.03906 -6.094824,4.53089 -2.409931,12.82418 -3.753907,19.0918 -0.371878,6.23814 4.723822,12.32921 11.271485,11.54687 7.236234,0.42229 13.752231,-4.52345 17.246093,-10.51367 8.028149,9.9295 23.448603,14.0241 34.730469,7.29883 4.66154,4.91825 11.755182,0.34922 17.429692,2.2539 3.56655,0.745 6.61698,-2.37956 9.83789,-0.52929 7.36153,0.7373 15.30258,-0.46574 22.28711,0.65039 2.1234,4.00092 1.20557,10.81904 5.88281,12.91211 4.80967,-0.83455 3.77306,-8.02897 6.01579,-11.27098 7.69261,-22.4774 15.38559,-44.95467 23.07796,-67.43215 -10.28255,0 -20.56511,0 -30.84766,0 -1.40429,0.50939 -5.13204,-1.08479 -7.53163,-0.15094 -6.78979,1.56105 -14.08478,-2.28536 -20.37267,1.54352 -4.3435,-2.63659 -10.03601,-0.79764 -14.95312,-1.76758 -3.33338,-0.1039 -7.184132,0.59366 -9.283203,3.45118 -4.72841,-3.20998 -10.484537,-4.70045 -16.177735,-4.33204 z m 1.373047,30.94922 c 1.353877,1.13478 1.707562,5.505 -0.347656,5.82227 -0.955074,-1.62112 -1.244003,-4.51539 0.347656,-5.82227 z"
           id="text862"
           inkscape:connector-curvature="0" />
        <g
           aria-label="JCXV"
           transform="matrix(0.97002563,0,0,1.2289996,-5.2341065,-20.742119)"
           style="font-style:normal;font-variant:normal;font-weight:normal;font-stretch:normal;font-size:66.94704437px;line-height:1.25;font-family:'Bauhaus 93';-inkscape-font-specification:'Bauhaus 93, Normal';font-variant-ligatures:normal;font-variant-caps:normal;font-variant-numeric:normal;font-feature-settings:normal;text-align:start;letter-spacing:0px;word-spacing:0px;writing-mode:lr-tb;text-anchor:start;fill:#ccff00;fill-opacity:1;stroke:none;stroke-width:0.12832388"
           id="text850">
          <path
             d="m 61.575652,122.80339 v 30.07387 q 0,6.79931 -3.8573,11.24501 -3.8573,4.41301 -9.774007,4.41301 -1.732516,0 -4.053434,-0.75184 v -12.84677 q 0.980669,0.42495 1.797894,0.42495 2.615119,0 2.615119,-4.21688 v -28.34135 z"
             style="font-style:normal;font-variant:normal;font-weight:normal;font-stretch:normal;font-size:66.94704437px;font-family:'Bauhaus 93';-inkscape-font-specification:'Bauhaus 93, Normal';font-variant-ligatures:normal;font-variant-caps:normal;font-variant-numeric:normal;font-feature-settings:normal;text-align:start;writing-mode:lr-tb;text-anchor:start;fill:#ccff00;stroke-width:0.12832388"
             id="path870"
             inkscape:connector-curvature="0" />
          <path
             d="m 99.39681,145.6203 13.89282,0.35958 q -1.37294,10.78737 -7.48578,16.67139 -6.08015,5.88401 -15.886846,5.88401 -9.970141,0 -16.704072,-6.66855 -6.701242,-6.70124 -6.701242,-16.606 0,-9.97015 6.831998,-16.76945 6.864687,-6.79931 16.900206,-6.79931 9.872076,0 16.475246,6.66855 4.57646,4.60915 6.47242,12.84677 l -14.219706,0.94798 q -2.386296,-7.32233 -9.05485,-7.32233 -4.249568,0 -7.028132,2.94201 -2.745875,2.94201 -2.745875,7.48578 0,4.38032 2.713186,7.25695 2.713186,2.84394 6.864687,2.84394 4.21688,0 6.701243,-2.51705 2.517052,-2.51705 2.974697,-7.22427 z"
             style="font-style:normal;font-variant:normal;font-weight:normal;font-stretch:normal;font-size:66.94704437px;font-family:'Bauhaus 93';-inkscape-font-specification:'Bauhaus 93, Normal';font-variant-ligatures:normal;font-variant-caps:normal;font-variant-numeric:normal;font-feature-settings:normal;text-align:start;writing-mode:lr-tb;text-anchor:start;fill:#ccff00;stroke-width:0.12832388"
             id="path872"
             inkscape:connector-curvature="0" />
          <path
             d="m 150.29356,122.80339 -11.60459,21.70549 11.99686,22.91498 h -13.9582 l -5.49175,-10.82006 -4.64183,10.82006 h -13.72938 l 12.25837,-22.5554 -11.60459,-22.06507 h 13.82744 l 5.19755,10.13359 4.18419,-10.13359 z"
             style="font-style:normal;font-variant:normal;font-weight:normal;font-stretch:normal;font-size:66.94704437px;font-family:'Bauhaus 93';-inkscape-font-specification:'Bauhaus 93, Normal';font-variant-ligatures:normal;font-variant-caps:normal;font-variant-numeric:normal;font-feature-settings:normal;text-align:start;writing-mode:lr-tb;text-anchor:start;fill:#ccff00;stroke-width:0.12832388"
             id="path874"
             inkscape:connector-curvature="0" />
          <path
             d="m 184.97658,122.80339 -19.44995,47.17021 -19.31919,-47.17021 h 15.36382 l 4.08613,13.92551 4.51108,-13.92551 z"
             style="font-style:normal;font-variant:normal;font-weight:normal;font-stretch:normal;font-size:66.94704437px;font-family:'Bauhaus 93';-inkscape-font-specification:'Bauhaus 93, Normal';font-variant-ligatures:normal;font-variant-caps:normal;font-variant-numeric:normal;font-feature-settings:normal;text-align:start;writing-mode:lr-tb;text-anchor:start;fill:#ccff00;stroke-width:0.12832388"
             id="path876"
             inkscape:connector-curvature="0" />
        </g>
      </g>
    </g>
  </g>
</svg>
